<?xml version="1.0" standalone="no"?>
<!DOCTYPE svg PUBLIC "-//W3C//DTD SVG 20010904//EN"
 "http://www.w3.org/TR/2001/REC-SVG-20010904/DTD/svg10.dtd">
<svg version="1.0" xmlns="http://www.w3.org/2000/svg"
 width="700.000000pt" height="700.000000pt" viewBox="0 0 700.000000 700.000000"
 preserveAspectRatio="xMidYMid meet">
<metadata>
Created by potrace 1.14, written by Peter Selinger 2001-2017
</metadata>
<g transform="translate(0.000000,700.000000) scale(0.100000,-0.100000)"
fill="#000000" stroke="none">
<path d="M3298 6295 c-2 -2 -37 -6 -78 -9 -103 -9 -289 -41 -385 -66 -44 -12
-87 -23 -95 -25 -8 -2 -53 -15 -100 -30 -467 -149 -909 -439 -1241 -815 -87
-99 -199 -244 -199 -259 0 -5 -3 -11 -7 -13 -32 -14 -216 -347 -284 -513 -55
-135 -128 -370 -144 -465 -3 -19 -11 -55 -16 -80 -6 -25 -13 -63 -15 -85 -3
-22 -7 -51 -10 -65 -26 -156 -26 -575 0 -740 14 -85 20 -126 21 -135 15 -126
112 -441 191 -617 109 -247 277 -516 435 -695 l28 -32 372 0 c205 -1 370 1
368 3 -2 2 -25 19 -50 38 -235 179 -452 430 -604 698 -152 268 -247 565 -282
885 -10 89 -10 377 -1 475 27 274 118 574 251 830 241 464 659 847 1145 1050
176 74 398 136 557 155 22 3 65 9 95 14 30 5 453 10 940 10 486 1 885 3 886 4
2 1 -41 29 -94 62 -346 214 -718 348 -1117 401 -27 4 -63 9 -80 11 -36 5 -482
13 -487 8z"/>
<path d="M3290 5339 c-30 -4 -80 -10 -110 -14 -30 -4 -104 -19 -165 -35 -462
-120 -841 -388 -1100 -779 -62 -94 -154 -268 -170 -321 -4 -14 -11 -29 -15
-35 -8 -11 -38 -109 -65 -210 -21 -81 -22 -82 -30 -145 -4 -30 -10 -64 -12
-75 -3 -11 -6 -101 -8 -200 -3 -248 21 -404 97 -624 222 -644 793 -1120 1470
-1226 178 -28 426 -28 588 1 14 2 41 7 60 10 79 13 227 57 323 95 334 132 617
350 829 640 32 43 58 81 58 84 0 4 11 21 24 38 23 32 120 224 142 282 42 111
75 226 89 304 3 19 7 37 9 40 2 3 7 33 11 66 4 33 9 74 11 90 5 39 5 299 0
345 -14 126 -21 167 -46 267 -137 543 -493 980 -995 1223 -178 86 -354 140
-558 171 -87 13 -361 18 -437 8z m-983 -1167 c15 -11 50 -60 77 -108 27 -49
61 -109 74 -134 14 -25 76 -135 137 -245 62 -110 121 -216 132 -235 11 -19 50
-90 87 -158 38 -67 70 -121 71 -120 4 5 113 215 250 483 270 528 257 505 308
532 35 18 102 11 137 -15 22 -17 101 -144 198 -322 19 -36 74 -135 122 -220
48 -85 103 -184 123 -220 127 -232 134 -243 145 -224 23 44 168 327 287 559
71 138 146 285 168 328 22 43 53 87 69 99 93 66 218 2 218 -112 0 -34 -21 -84
-114 -264 -109 -211 -263 -512 -434 -846 -86 -167 -114 -205 -163 -215 -78
-17 -138 23 -195 131 -17 32 -107 196 -201 364 -174 311 -196 350 -253 455
-18 33 -35 64 -38 68 -6 12 -26 -24 -194 -354 -350 -685 -330 -654 -406 -665
-55 -8 -100 11 -135 58 -18 25 -353 621 -597 1063 -9 17 -34 61 -54 98 -45 81
-50 133 -15 181 36 50 73 67 131 62 20 -2 50 -13 65 -24z"/>
<path d="M4870 5346 c0 -1 32 -26 70 -56 39 -30 124 -109 188 -176 183 -188
301 -354 412 -579 118 -240 182 -444 220 -706 15 -109 18 -175 15 -349 -2
-118 -6 -231 -9 -250 -4 -19 -11 -64 -17 -100 -15 -97 -64 -282 -103 -392 -35
-98 -120 -291 -141 -318 -7 -8 -26 -42 -45 -75 -112 -204 -338 -463 -553 -633
-75 -60 -269 -192 -281 -192 -4 0 -24 -11 -46 -25 -22 -14 -40 -23 -40 -19 0
3 -13 -4 -29 -15 -16 -12 -32 -21 -35 -21 -5 0 -52 -20 -141 -60 -70 -31 -283
-95 -386 -115 -221 -44 -291 -47 -1237 -47 l-832 0 38 -28 c130 -94 370 -221
552 -293 147 -58 383 -128 462 -138 2 0 21 -4 43 -9 22 -5 67 -12 100 -16 33
-3 63 -8 67 -11 41 -24 589 -23 728 1 14 3 43 7 65 10 22 4 51 8 65 11 14 2
37 7 53 10 69 13 89 18 192 46 889 245 1603 919 1907 1799 94 273 139 542 143
860 6 396 -51 711 -192 1070 -103 262 -228 476 -417 718 l-81 102 -367 -1
c-203 0 -368 -2 -368 -3z"/>
</g>
</svg>
