<svg width="500" height="500" viewBox="0 0 500 500" fill="none" xmlns="http://www.w3.org/2000/svg">
<path fill-rule="evenodd" clip-rule="evenodd" d="M250 450C360.457 450 450 360.457 450 250C450 199.417 431.222 153.22 400.257 118H347.682C387.355 147.933 413 195.472 413 249C413 339.575 339.575 413 249 413C248.332 413 247.666 412.996 247 412.988V413H134.081C166.781 436.297 206.79 450 250 450ZM99.7435 382H153.026C111.816 352.21 85 303.737 85 249C85 158.425 158.425 85 249 85C249.334 85 249.667 85.001 250 85.003V85H363.06C330.899 62.9206 291.958 50 250 50C139.543 50 50 139.543 50 250C50 300.583 68.7781 346.78 99.7435 382Z" fill="url(#paint0_linear)"/>
<path fill-rule="evenodd" clip-rule="evenodd" d="M248 382C321.454 382 381 322.902 381 250C381 177.098 321.454 118 248 118C174.546 118 115 177.098 115 250C115 322.902 174.546 382 248 382ZM256.946 202.802C256.051 201.938 255.013 201.261 253.894 200.789C251.215 199.653 248.278 199.776 245.789 200.929C244.686 201.44 243.672 202.153 242.807 203.049C242.084 203.797 241.491 204.645 241.04 205.557L206.03 273.807L167.734 205.13C165.044 200.306 158.953 198.576 154.13 201.266C149.306 203.956 147.576 210.047 150.266 214.87L197.663 299.87C199.46 303.091 202.883 305.063 206.571 304.999C210.258 304.935 213.612 302.846 215.295 299.564L250.368 231.193L288.663 299.87C290.46 303.091 293.883 305.063 297.571 304.999C301.258 304.935 304.612 302.846 306.295 299.564L349.897 214.564C352.418 209.65 350.478 203.623 345.564 201.102C340.65 198.582 334.623 200.522 332.102 205.436L297.03 273.807L258.8 205.249C258.318 204.353 257.696 203.525 256.946 202.802Z" fill="url(#paint1_linear)"/>
<defs>
<linearGradient id="paint0_linear" x1="250" y1="50" x2="250" y2="450" gradientUnits="userSpaceOnUse">
<stop offset="1" stop-color="#0EA5E9"/>
</linearGradient>
<linearGradient id="paint1_linear" x1="248" y1="118" x2="248" y2="382" gradientUnits="userSpaceOnUse">
<stop offset="1" stop-color="white"/>
</linearGradient>
</defs>
</svg>
